HIERARCHY
ROOT joint_0
{
	OFFSET 0.000000 0.000000 0.000000
	CHANNELS 6 Xposition Yposition Zposition Zrotation Yrotation Xrotation 
	JOINT joint_1
	{
		OFFSET 6.004005 -1.946999 100.587036
		CHANNELS 3 Zrotation Yrotation Xrotation
		JOINT joint_2
		{
			OFFSET -4.601006 -0.824997 91.925903
			CHANNELS 3 Zrotation Yrotation Xrotation
			JOINT joint_3
			{
				OFFSET -5.420998 -1.130005 91.774048
				CHANNELS 3 Zrotation Yrotation Xrotation
				JOINT joint_4
				{
					OFFSET 4.308998 -3.777992 123.473999
					CHANNELS 3 Zrotation Yrotation Xrotation
					JOINT joint_5
					{
						OFFSET 25.565002 -6.305008 79.437988
						CHANNELS 3 Zrotation Yrotation Xrotation
						End Site
						{
							OFFSET 0.000000 0.000000 0.000000
						}
					}
				}
				JOINT joint_6
				{
					OFFSET -1.750000 -28.655998 68.557983
					CHANNELS 3 Zrotation Yrotation Xrotation
					JOINT joint_7
					{
						OFFSET -17.692001 -116.544006 -17.244019
						CHANNELS 3 Zrotation Yrotation Xrotation
						JOINT joint_8
						{
							OFFSET 27.063004 -23.640991 -266.895020
							CHANNELS 3 Zrotation Yrotation Xrotation
							JOINT joint_9
							{
								OFFSET 40.722000 -15.761017 -232.488953
								CHANNELS 3 Zrotation Yrotation Xrotation
								End Site
								{
									OFFSET 0.000000 0.000000 0.000000
								}
							}
						}
					}
				}
				JOINT joint_10
				{
					OFFSET 6.593002 24.457001 69.892944
					CHANNELS 3 Zrotation Yrotation Xrotation
					JOINT joint_11
					{
						OFFSET 24.311996 114.920002 -19.872925
						CHANNELS 3 Zrotation Yrotation Xrotation
						JOINT joint_12
						{
							OFFSET 21.081001 15.319000 -268.037964
							CHANNELS 3 Zrotation Yrotation Xrotation
							JOINT joint_13
							{
								OFFSET 27.794006 -8.947001 -234.744080
								CHANNELS 3 Zrotation Yrotation Xrotation
								End Site
								{
									OFFSET 0.000000 0.000000 0.000000
								}
							}
						}
					}
				}
			}
		}
	}
	JOINT joint_14
	{
		OFFSET -6.627998 -80.520004 -98.790039
		CHANNELS 3 Zrotation Yrotation Xrotation
		JOINT joint_15
		{
			OFFSET -43.638000 -13.751999 -502.538971
			CHANNELS 3 Zrotation Yrotation Xrotation
			JOINT joint_16
			{
				OFFSET -39.532999 -9.912994 -398.071007
				CHANNELS 3 Zrotation Yrotation Xrotation
				JOINT joint_17
				{
					OFFSET 174.940004 -34.660995 -75.688002
					CHANNELS 3 Zrotation Yrotation Xrotation
					End Site
					{
						OFFSET 0.000000 0.000000 0.000000
					}
				}
			}
		}
	}
	JOINT joint_18
	{
		OFFSET 12.591003 79.842003 -98.765015
		CHANNELS 3 Zrotation Yrotation Xrotation
		JOINT joint_19
		{
			OFFSET -39.080002 -1.297001 -503.101013
			CHANNELS 3 Zrotation Yrotation Xrotation
			JOINT joint_20
			{
				OFFSET -51.570000 -0.514000 -396.815987
				CHANNELS 3 Zrotation Yrotation Xrotation
				JOINT joint_21
				{
					OFFSET 178.987999 -11.521999 -73.244003
					CHANNELS 3 Zrotation Yrotation Xrotation
					End Site
					{
						OFFSET 0.000000 0.000000 0.000000
					}
				}
			}
		}
	}
}
MOTION
Frames: 16
Frame Time: 0.016667
-1296.106934 902.585083 1092.937012 1.889831 -1.668478 -0.679652 0.078675 3.081516 0.185853 0.066119 -0.515870 -0.004267 0.085397 0.636244 0.059633 0.065058 -1.503520 -0.586053 0.000000 0.000000 0.000000 4.629460 0.335482 1.264302 -0.052382 0.886422 2.221019 -0.903950 4.539091 -3.026072 0.000000 0.000000 0.000000 0.139270 -0.810819 0.322286 -0.153269 -0.378761 -1.956627 0.667830 2.195188 6.635531 0.000000 0.000000 0.000000 0.624354 -4.343262 -2.353471 -0.061826 8.446369 1.278077 0.338961 -0.874349 -0.028292 0.000000 0.000000 0.000000 -0.037364 -5.609728 4.157704 0.220895 9.856248 0.883579 0.422665 -2.535075 0.007829 0.000000 0.000000 0.000000 
-1296.123657 902.678345 1092.911011 1.880906 -1.668716 -0.678702 0.081681 3.085246 0.185564 0.069266 -0.517668 -0.002821 0.088453 0.637743 0.058811 0.063531 -1.506478 -0.582036 0.000000 0.000000 0.000000 4.604588 0.346206 1.274164 -0.053838 0.895424 2.219628 -0.906881 4.552418 -3.037019 0.000000 0.000000 0.000000 0.119374 -0.815253 0.316688 -0.152735 -0.379335 -1.963843 0.667956 2.184234 6.630446 0.000000 0.000000 0.000000 0.630267 -4.352493 -2.364016 -0.058394 8.463693 1.285292 0.343977 -0.885918 -0.028444 0.000000 0.000000 0.000000 -0.037768 -5.625308 4.155443 0.220484 9.892299 0.878788 0.422106 -2.553616 0.006410 0.000000 0.000000 0.000000 
-1296.157715 902.776733 1092.880005 1.880579 -1.671049 -0.677213 0.082202 3.095237 0.186733 0.069951 -0.519312 -0.001288 0.089050 0.639537 0.058070 0.062589 -1.512550 -0.580659 0.000000 0.000000 0.000000 4.581451 0.357582 1.281888 -0.055313 0.904630 2.220776 -0.910778 4.570595 -3.050712 0.000000 0.000000 0.000000 0.098236 -0.821879 0.309386 -0.152090 -0.382423 -1.970144 0.668032 2.171070 6.624038 0.000000 0.000000 0.000000 0.633660 -4.365050 -2.375006 -0.057876 8.493569 1.291430 0.346748 -0.901857 -0.030429 0.000000 0.000000 0.000000 -0.042720 -5.647058 4.153899 0.215869 9.942633 0.871132 0.417423 -2.577367 0.002993 0.000000 0.000000 0.000000 
-1296.205933 902.880432 1092.844971 1.882748 -1.677196 -0.676758 0.081672 3.111333 0.193891 0.069273 -0.522356 -0.002538 0.088567 0.643149 0.058204 0.061804 -1.519243 -0.579944 0.000000 0.000000 0.000000 4.563491 0.368829 1.289618 -0.057071 0.914777 2.220217 -0.914788 4.589745 -3.064282 0.000000 0.000000 0.000000 0.080276 -0.830828 0.301168 -0.151884 -0.388483 -1.977253 0.667964 2.159723 6.617168 0.000000 0.000000 0.000000 0.636433 -4.377837 -2.384921 -0.058107 8.532040 1.297058 0.349182 -0.920923 -0.033181 0.000000 0.000000 0.000000 -0.048276 -5.671069 4.152722 0.210634 10.004524 0.864137 0.412482 -2.605072 -0.000785 0.000000 0.000000 0.000000 
-1296.269531 902.988342 1092.801025 1.884517 -1.689429 -0.678761 0.081129 3.134695 0.208800 0.068322 -0.524440 -0.005055 0.088006 0.645986 0.060562 0.062254 -1.524402 -0.582684 0.000000 0.000000 0.000000 4.550050 0.380777 1.293885 -0.058906 0.926115 2.217420 -0.918073 4.607117 -3.074578 0.000000 0.000000 0.000000 0.067057 -0.842874 0.291667 -0.152763 -0.398035 -1.988533 0.667853 2.154458 6.612485 0.000000 0.000000 0.000000 0.639307 -4.388282 -2.391681 -0.058041 8.578209 1.301190 0.352199 -0.944643 -0.036608 0.000000 0.000000 0.000000 -0.052695 -5.695372 4.152360 0.206384 10.079778 0.859837 0.409117 -2.637286 -0.004220 0.000000 0.000000 0.000000 
-1296.349243 903.100464 1092.749023 1.887036 -1.706429 -0.683026 0.080198 3.164871 0.232329 0.066570 -0.526858 -0.011428 0.087058 0.649519 0.065223 0.063381 -1.528602 -0.587305 0.000000 0.000000 0.000000 4.542574 0.393212 1.295937 -0.060950 0.938767 2.212974 -0.921117 4.623973 -3.083502 0.000000 0.000000 0.000000 0.057296 -0.858214 0.281731 -0.154607 -0.411050 -2.003059 0.667586 2.154511 6.608506 0.000000 0.000000 0.000000 0.641927 -4.398525 -2.395658 -0.058202 8.633728 1.304180 0.355374 -0.972695 -0.040829 0.000000 0.000000 0.000000 -0.056907 -5.722206 4.153416 0.202351 10.169598 0.856853 0.406441 -2.674946 -0.007731 0.000000 0.000000 0.000000 
-1296.434204 903.215271 1092.697998 1.889816 -1.726006 -0.686709 0.080310 3.196857 0.255921 0.065812 -0.531777 -0.017405 0.087155 0.655080 0.070209 0.064732 -1.531092 -0.592185 0.000000 0.000000 0.000000 4.532740 0.405944 1.298176 -0.063018 0.951367 2.208708 -0.924343 4.641896 -3.092829 0.000000 0.000000 0.000000 0.047112 -0.872895 0.270017 -0.156089 -0.424127 -2.015329 0.667201 2.151647 6.602727 0.000000 0.000000 0.000000 0.644903 -4.407824 -2.400377 -0.058064 8.692799 1.306879 0.359019 -1.001974 -0.045094 0.000000 0.000000 0.000000 -0.060775 -5.745649 4.152598 0.198393 10.257147 0.855745 0.404058 -2.710332 -0.010978 0.000000 0.000000 0.000000 
-1296.518311 903.333191 1092.649048 1.890969 -1.747257 -0.689137 0.082127 3.224850 0.277032 0.066812 -0.534526 -0.021398 0.088682 0.659115 0.072988 0.066491 -1.528250 -0.596967 0.000000 0.000000 0.000000 4.520235 0.419568 1.301065 -0.065052 0.963931 2.208590 -0.928629 4.662316 -3.106651 0.000000 0.000000 0.000000 0.038268 -0.884340 0.257916 -0.156525 -0.434895 -2.023848 0.666759 2.140653 6.594114 0.000000 0.000000 0.000000 0.648557 -4.417421 -2.407004 -0.057492 8.756445 1.310106 0.363394 -1.033202 -0.049434 0.000000 0.000000 0.000000 -0.063949 -5.762322 4.148713 0.194793 10.334303 0.857314 0.402172 -2.741298 -0.013742 0.000000 0.000000 0.000000 
-1296.606567 903.453857 1092.599976 1.891319 -1.771440 -0.690417 0.086395 3.253315 0.295803 0.070373 -0.537395 -0.022649 0.092466 0.662242 0.074060 0.068230 -1.520922 -0.600537 0.000000 0.000000 0.000000 4.501852 0.434285 1.304800 -0.067094 0.976544 2.210463 -0.933558 4.685042 -3.122805 0.000000 0.000000 0.000000 0.025936 -0.894093 0.244997 -0.156198 -0.444101 -2.029120 0.666199 2.123918 6.582725 0.000000 0.000000 0.000000 0.652972 -4.427083 -2.415182 -0.056403 8.826681 1.313367 0.368657 -1.067300 -0.053967 0.000000 0.000000 0.000000 -0.066661 -5.773990 4.141883 0.191289 10.407170 0.861637 0.400663 -2.769842 -0.016199 0.000000 0.000000 0.000000 
-1296.689453 903.567810 1092.557007 1.891077 -1.793196 -0.690488 0.090389 3.276083 0.312666 0.073607 -0.541172 -0.025098 0.096048 0.666258 0.075503 0.069502 -1.511250 -0.602041 0.000000 0.000000 0.000000 4.483471 0.449007 1.311455 -0.069203 0.989745 2.211555 -0.938217 4.705770 -3.138548 0.000000 0.000000 0.000000 0.017001 -0.900860 0.233572 -0.155593 -0.450752 -2.033393 0.665642 2.106263 6.571311 0.000000 0.000000 0.000000 0.657274 -4.434048 -2.424057 -0.055024 8.885640 1.316221 0.373590 -1.096661 -0.057698 0.000000 0.000000 0.000000 -0.068110 -5.781547 4.134405 0.189071 10.465579 0.865147 0.400048 -2.791908 -0.017878 0.000000 0.000000 0.000000 
-1296.757690 903.669495 1092.524048 1.889501 -1.808056 -0.688630 0.092870 3.286385 0.325430 0.075395 -0.543494 -0.028077 0.098259 0.669061 0.078243 0.070523 -1.497153 -0.601600 0.000000 0.000000 0.000000 4.467052 0.464226 1.321081 -0.071420 1.004617 2.209998 -0.941940 4.722344 -3.151435 0.000000 0.000000 0.000000 0.015123 -0.902043 0.223534 -0.154681 -0.452772 -2.037267 0.665091 2.088274 6.560074 0.000000 0.000000 0.000000 0.661150 -4.437582 -2.434018 -0.053364 8.921581 1.318773 0.377561 -1.116298 -0.059908 0.000000 0.000000 0.000000 -0.067201 -5.784711 4.126612 0.189355 10.499447 0.866345 0.401140 -2.803476 -0.018190 0.000000 0.000000 0.000000 
-1296.815430 903.761658 1092.498047 1.886762 -1.818341 -0.685099 0.094769 3.287741 0.335214 0.076612 -0.546104 -0.031519 0.099905 0.671973 0.080540 0.070907 -1.479264 -0.598182 0.000000 0.000000 0.000000 4.450908 0.479936 1.334152 -0.073691 1.020768 2.207115 -0.945061 4.735961 -3.162683 0.000000 0.000000 0.000000 0.018367 -0.898951 0.216636 -0.153405 -0.450659 -2.041197 0.664497 2.068238 6.548048 0.000000 0.000000 0.000000 0.665010 -4.438223 -2.445059 -0.051207 8.940976 1.321021 0.381139 -1.129272 -0.060959 0.000000 0.000000 0.000000 -0.064459 -5.783316 4.118303 0.191582 10.513485 0.865882 0.403555 -2.806628 -0.017426 0.000000 0.000000 0.000000 
-1296.866577 903.844177 1092.478027 1.884425 -1.825960 -0.680825 0.095985 3.283486 0.340966 0.077376 -0.548794 -0.033288 0.100940 0.674263 0.082116 0.070945 -1.461283 -0.593662 0.000000 0.000000 0.000000 4.434803 0.495464 1.349838 -0.075893 1.037162 2.204075 -0.947770 4.747297 -3.172879 0.000000 0.000000 0.000000 0.021077 -0.892983 0.209840 -0.152211 -0.446214 -2.042080 0.664082 2.054343 6.539689 0.000000 0.000000 0.000000 0.668507 -4.434962 -2.456282 -0.048903 8.946235 1.322971 0.384093 -1.136009 -0.061036 0.000000 0.000000 0.000000 -0.061404 -5.779710 4.109852 0.194084 10.516841 0.865076 0.405998 -2.805604 -0.016380 0.000000 0.000000 0.000000 
-1296.911377 903.917053 1092.462036 1.884914 -1.830744 -0.675764 0.095724 3.271428 0.342644 0.076894 -0.548843 -0.035398 0.100674 0.674484 0.083360 0.069940 -1.447440 -0.586961 0.000000 0.000000 0.000000 4.419230 0.510827 1.367935 -0.077783 1.053563 2.202561 -0.949913 4.756301 -3.181171 0.000000 0.000000 0.000000 0.020836 -0.884789 0.202842 -0.151469 -0.440286 -2.037589 0.663931 2.053066 6.537862 0.000000 0.000000 0.000000 0.671288 -4.426573 -2.467892 -0.046772 8.935023 1.324563 0.386009 -1.135497 -0.060115 0.000000 0.000000 0.000000 -0.059854 -5.776494 4.100766 0.194875 10.514456 0.864974 0.406744 -2.803097 -0.015921 0.000000 0.000000 0.000000 
-1296.947632 903.979248 1092.451050 1.887925 -1.832590 -0.669912 0.093671 3.251963 0.338794 0.075019 -0.548250 -0.034413 0.098731 0.674137 0.083480 0.068884 -1.434906 -0.580433 0.000000 0.000000 0.000000 4.404839 0.525985 1.388243 -0.079472 1.070100 2.202029 -0.951668 4.763620 -3.188255 0.000000 0.000000 0.000000 0.021183 -0.873818 0.195183 -0.151071 -0.432862 -2.028455 0.663923 2.061812 6.540779 0.000000 0.000000 0.000000 0.673434 -4.412776 -2.479537 -0.044592 8.906670 1.325186 0.387015 -1.127405 -0.058075 0.000000 0.000000 0.000000 -0.058995 -5.772040 4.091238 0.194847 10.502755 0.865187 0.406571 -2.797318 -0.015618 0.000000 0.000000 0.000000 
-1296.985474 904.035400 1092.442993 1.887776 -1.833179 -0.664648 0.092262 3.231549 0.334935 0.073765 -0.546401 -0.034027 0.097360 0.672169 0.082742 0.066846 -1.428415 -0.572411 0.000000 0.000000 0.000000 4.392686 0.539856 1.408981 -0.080950 1.085508 2.202868 -0.953143 4.767758 -3.195286 0.000000 0.000000 0.000000 0.020543 -0.861492 0.189632 -0.150851 -0.423456 -2.019499 0.664173 2.074915 6.547370 0.000000 0.000000 0.000000 0.676459 -4.400177 -2.491033 -0.041680 8.876594 1.327585 0.388731 -1.117726 -0.055416 0.000000 0.000000 0.000000 -0.057167 -5.767931 4.083342 0.195998 10.489119 0.864259 0.407304 -2.789988 -0.014850 0.000000 0.000000 0.000000 
